<svg xmlns="http://www.w3.org/2000/svg" width="23.313" height="22.531" viewBox="0 0 23.313 22.531">
  <defs>
    <style>
      .cls-1 {
        fill: #6255a0;
        fill-rule: evenodd;
      }
    </style>
  </defs>
  <path id="Vector" class="cls-1" d="M81.275,231.961l-8.951-7.955a3.5,3.5,0,0,0-4.65,0l-8.95,7.955A1.167,1.167,0,0,0,59.5,234h2.334v8.167a3.5,3.5,0,0,0,3.5,3.5H66.5v-7c0-4.625,7-4.627,7,0v7h1.166a3.5,3.5,0,0,0,3.5-3.5V234H80.5a1.168,1.168,0,0,0,.775-2.039h0Z" transform="translate(-58.344 -223.125)"/>
</svg>
